# xmcd
#
# Track frame offsets: 
#        150
#        12889
#        25730
#        40826
#        57533
#        65284
#        76722
#        86489
#        100884
#        111282
#        123359
#        134929
#        153034
#        162607
#        173538
#        179732
#
# Disc length: 2551 seconds
#
# Revision: 0
# Processed by: cddbd v1.5.2PL0 Copyright (c) Steve Scherf et al.
# Submitted via: ExactAudioCopyFreeDBPlugin 1.0
#
DISCID=ce09f510
DTITLE=Varios - Life At The Frontiers - Country - CD5
DYEAR=2012
DGENRE=Country
TTITLE0=Johnny Cash - Give My Love To Rose
TTITLE1=Frankie Laine - High Noon
TTITLE2=Kenny Rogers - Heed The Call
TTITLE3=Rex Allen jr. - Memory Train
TTITLE4=Johnny Cash and The Tennessee Two - If The Good Lord's Willing
TTITLE5=Willie Nelson - Suffering In Silence
TTITLE6=Johnny Cash and The Tennessee Two - Rock Island Line
TTITLE7=B. J. Thomas - I Am So Lonesome
TTITLE8=Johnny Cash - Get Rhythm
TTITLE9=Kenny Rogers - What Am I Gonna Do
TTITLE10=Johnny Cash - Peace In The Valley
TTITLE11=Kenny Rogers - Something's Burning
TTITLE12=Willie Nelson - Right From Wrong
TTITLE13=Kenny Rogers - She Even Woke Me Up To Say Goodbye
TTITLE14=Nashville 10 - Singing My Song
TTITLE15=Kenny Rogers - Peom For My Little Lady
EXTD=
EXTT0=
EXTT1=
EXTT2=
EXTT3=
EXTT4=
EXTT5=
EXTT6=
EXTT7=
EXTT8=
EXTT9=
EXTT10=
EXTT11=
EXTT12=
EXTT13=
EXTT14=
EXTT15=
PLAYORDER=
